<svg height="512" viewBox="0 0 64 64" width="512" xmlns="http://www.w3.org/2000/svg" xmlns:xlink="http://www.w3.org/1999/xlink"><linearGradient id="New_Gradient_Swatch" gradientUnits="userSpaceOnUse" x1="43" x2="43" y1="63.159" y2="-.81"><stop offset="0" stop-color="#e93e3a"/><stop offset=".35" stop-color="#ed683c"/><stop offset=".7" stop-color="#f3903f"/><stop offset="1" stop-color="#fdc70c"/></linearGradient><linearGradient id="New_Gradient_Swatch-5" x1="17" x2="17" xlink:href="#New_Gradient_Swatch" y1="63.159" y2="-.81"/><g id="Contact-3" data-name="Contact"><g fill="url(#New_Gradient_Swatch)"><path d="m43 2c-10.477 0-19 6.729-19 15 0 5.673 4.07 10.851 10.444 13.388l-1.421 6.4a1 1 0 0 0 1.577 1.012l7.761-5.821c.212.011.424.021.639.021 10.477 0 19-6.729 19-15s-8.523-15-19-15zm0 28c-.2 0-.4-.011-.591-.021l-.319-.015a1.039 1.039 0 0 0 -.64.2l-5.888 4.415 1.024-4.605a1 1 0 0 0 -.646-1.161c-6.04-2.121-9.94-6.757-9.94-11.813 0-7.168 7.626-13 17-13s17 5.832 17 13-7.626 13-17 13z"/><path d="m32 16h22v2h-22z"/><path d="m32 12h22v2h-22z"/><path d="m32 20h22v2h-22z"/></g><path d="m26.843 47.825-5.843-1.589v-1.186a9 9 0 0 0 5-8.05v-1a1 1 0 0 0 1-1v-3a10 10 0 0 0 -20 0v3a1 1 0 0 0 1 1v1a9 9 0 0 0 5 8.05v1.186l-5.846 1.59a7.03 7.03 0 0 0 -5.154 6.754v6.42a1 1 0 0 0 1 1h28a1 1 0 0 0 1-1v-6.42a7.031 7.031 0 0 0 -5.157-6.755zm-15.843 1.027 1.4-.38 3.6 3v2.528h2v-2.531l3.6-3 1.4.38v1.734l-6 6-6-6zm-2-16.852a8 8 0 0 1 16 0v1.951a4.969 4.969 0 0 1 -3.764-2.715l-.341-.683a1 1 0 0 0 -1.6-.26l-1.659 1.657a6.954 6.954 0 0 1 -4.949 2.05h-3.687zm1 5v-1h2.687a8.937 8.937 0 0 0 6.363-2.636l.7-.7a6.943 6.943 0 0 0 4.25 3.123v1.213a7 7 0 0 1 -14 0zm7 9a8.971 8.971 0 0 0 2-.232v1.232a.989.989 0 0 0 .349.743l-2.349 1.957-2.349-1.956a.989.989 0 0 0 .349-.744v-1.232a8.971 8.971 0 0 0 2 .232zm13 14h-26v-5.42a5.024 5.024 0 0 1 3.683-4.825l1.317-.355v1.6a1 1 0 0 0 .293.707l7 7a1 1 0 0 0 1.414 0l7-7a1 1 0 0 0 .293-.707v-1.6l1.314.358a5.026 5.026 0 0 1 3.686 4.822z" fill="url(#New_Gradient_Swatch-5)"/><path d="m21 38h-2a2 2 0 0 1 -4 0h-2a4 4 0 0 0 8 0z" fill="url(#New_Gradient_Swatch-5)"/></g></svg>